<?xml version="1.0" encoding="UTF-8" standalone="no"?>
<!DOCTYPE svg PUBLIC "-//W3C//DTD SVG 20010904//EN"
              "http://www.w3.org/TR/2001/REC-SVG-20010904/DTD/svg10.dtd">

<svg xmlns="http://www.w3.org/2000/svg"
     width="10.3556in" height="25.5333in"
     viewBox="0 0 932 2298">
  <path id="Auswahl"
        fill="#eeeeee" stroke="none" stroke-width="1"
        d="M 440.00,0.51
           C 440.00,0.51 408.00,3.43 408.00,3.43
             375.61,7.43 342.81,15.15 312.09,26.10
             182.61,72.21 81.88,173.40 34.16,302.00
             18.10,345.26 7.07,401.89 7.00,448.00
             7.00,448.00 7.55,484.00 7.55,484.00
             7.73,509.44 14.37,545.97 20.63,571.00
             40.93,652.27 83.93,728.37 144.00,786.99
             175.70,817.92 208.36,841.47 247.00,862.90
             247.00,862.90 263.00,871.74 263.00,871.74
             285.93,882.84 310.01,891.71 334.28,899.20
             366.59,909.15 412.23,917.65 446.00,918.00
             446.00,918.00 463.00,919.00 463.00,919.00
             463.00,919.00 485.00,918.00 485.00,918.00
             485.00,918.00 519.00,915.57 519.00,915.57
             554.28,911.56 589.57,903.09 623.00,891.20
             623.00,891.20 661.00,875.54 661.00,875.54
             661.00,875.54 673.00,869.26 673.00,869.26
             704.67,853.82 734.28,833.78 761.27,811.14
             806.01,773.62 842.69,728.39 870.32,677.00
             870.32,677.00 876.74,666.00 876.74,666.00
             876.74,666.00 882.89,652.00 882.89,652.00
             882.89,652.00 898.38,614.00 898.38,614.00
             898.38,614.00 901.98,605.00 901.98,605.00
             901.98,605.00 904.93,594.54 904.93,594.54
             904.93,594.54 915.17,554.83 915.17,554.83
             939.85,435.90 918.38,313.49 852.72,211.00
             794.90,120.76 704.52,51.66 602.04,20.14
             546.25,2.98 498.02,-1.16 440.00,0.51 Z
           M 450.00,41.00
           C 450.00,41.00 450.00,266.00 450.00,266.00
             450.00,266.00 421.00,265.00 421.00,265.00
             421.00,265.00 410.00,264.04 410.00,264.04
             410.00,264.04 350.00,258.13 350.00,258.13
             335.03,256.05 302.63,250.94 289.00,247.00
             290.66,236.20 301.82,205.28 306.19,194.00
             321.73,153.90 345.53,107.61 376.00,77.00
             386.10,66.86 407.51,48.06 421.00,43.60
             426.65,41.73 443.53,41.00 450.00,41.00 Z
           M 643.00,247.00
           C 643.00,247.00 594.00,256.42 594.00,256.42
             570.13,260.13 546.10,262.99 522.00,264.04
             522.00,264.04 511.00,265.00 511.00,265.00
             511.00,265.00 482.00,266.00 482.00,266.00
             482.00,266.00 482.00,41.00 482.00,41.00
             488.52,41.00 505.29,41.72 511.00,43.60
             525.34,48.30 545.38,66.33 556.00,77.00
             586.38,107.52 609.29,152.23 625.20,192.00
             629.61,203.03 641.51,236.43 643.00,247.00 Z
           M 350.00,57.00
           C 350.00,57.00 326.43,87.00 326.43,87.00
             313.61,104.93 301.86,125.16 292.26,145.00
             283.38,163.34 275.57,182.71 269.00,202.00
             269.00,202.00 257.00,239.00 257.00,239.00
             257.00,239.00 231.00,231.34 231.00,231.34
             197.84,220.75 173.76,210.25 143.00,194.00
             146.24,187.95 151.29,183.09 155.84,178.00
             165.37,167.32 175.41,157.54 186.00,147.93
             215.66,121.01 249.02,99.16 285.00,81.74
             302.84,73.11 330.89,61.36 350.00,57.00 Z
           M 583.00,57.00
           C 606.30,64.62 628.87,72.54 651.00,83.26
             685.34,99.89 717.60,122.47 746.00,147.84
             756.61,157.31 766.89,167.29 776.28,178.00
             780.88,183.25 785.67,187.77 789.00,194.00
             756.45,211.20 731.18,222.09 696.00,233.02
             696.00,233.02 675.00,239.00 675.00,239.00
             675.00,239.00 669.98,223.00 669.98,223.00
             669.98,223.00 661.31,197.00 661.31,197.00
             651.66,169.87 640.24,144.12 626.14,119.00
             619.19,106.62 607.76,89.06 599.00,78.00
             595.55,73.65 584.05,61.17 583.00,57.00 Z
           M 249.00,270.00
           C 249.00,270.00 242.80,302.00 242.80,302.00
             242.80,302.00 238.42,328.00 238.42,328.00
             234.79,351.42 231.99,375.35 230.96,399.00
             230.96,399.00 230.00,410.00 230.00,410.00
             230.00,410.00 229.00,443.00 229.00,443.00
             229.00,443.00 48.00,443.00 48.00,443.00
             48.00,388.48 66.95,320.63 91.27,272.00
             91.27,272.00 110.42,238.00 110.42,238.00
             110.42,238.00 122.00,220.00 122.00,220.00
             122.00,220.00 153.00,235.14 153.00,235.14
             174.46,244.70 195.69,253.56 218.00,261.00
             218.00,261.00 249.00,270.00 249.00,270.00 Z
           M 810.00,220.00
           C 810.00,220.00 838.74,268.00 838.74,268.00
             864.49,317.90 884.00,386.68 884.00,443.00
             884.00,443.00 703.00,443.00 703.00,443.00
             703.00,402.48 698.63,362.09 692.73,322.00
             692.73,322.00 683.00,270.00 683.00,270.00
             690.92,268.78 706.90,263.37 715.00,260.67
             735.79,253.74 756.08,245.84 776.00,236.69
             776.00,236.69 810.00,220.00 810.00,220.00 Z
           M 450.00,298.00
           C 450.00,298.00 450.00,443.00 450.00,443.00
             450.00,443.00 261.00,443.00 261.00,443.00
             261.00,443.00 262.00,414.00 262.00,414.00
             262.00,414.00 262.96,403.00 262.96,403.00
             264.01,378.93 266.89,354.86 270.43,331.00
             270.43,331.00 280.00,279.00 280.00,279.00
             280.00,279.00 330.00,287.73 330.00,287.73
             330.00,287.73 399.00,296.00 399.00,296.00
             399.00,296.00 407.00,296.00 407.00,296.00
             407.00,296.00 417.00,297.00 417.00,297.00
             417.00,297.00 450.00,298.00 450.00,298.00 Z
           M 652.00,279.00
           C 652.00,279.00 655.39,296.00 655.39,296.00
             655.39,296.00 661.58,331.00 661.58,331.00
             665.17,354.15 668.02,377.62 669.04,401.00
             669.04,401.00 670.00,412.00 670.00,412.00
             670.00,412.00 671.00,443.00 671.00,443.00
             671.00,443.00 482.00,443.00 482.00,443.00
             482.00,443.00 482.00,298.00 482.00,298.00
             482.00,298.00 515.00,297.00 515.00,297.00
             515.00,297.00 526.00,296.04 526.00,296.04
             549.40,295.02 572.80,292.15 596.00,288.73
             596.00,288.73 652.00,279.00 652.00,279.00 Z
           M 229.00,475.00
           C 229.00,508.87 233.63,566.93 240.00,600.00
             240.00,600.00 246.60,635.00 246.60,635.00
             247.13,637.65 249.44,645.19 247.97,647.28
             246.63,649.18 239.42,650.72 237.00,651.42
             237.00,651.42 210.00,660.00 210.00,660.00
             191.03,666.47 167.88,675.81 150.00,684.75
             142.36,688.57 130.73,694.19 124.00,699.00
             118.80,694.60 115.17,687.77 111.58,682.00
             111.58,682.00 91.75,647.00 91.75,647.00
             66.84,597.17 48.00,530.92 48.00,475.00
             48.00,475.00 229.00,475.00 229.00,475.00 Z
           M 450.00,475.00
           C 450.00,475.00 450.00,620.00 450.00,620.00
             450.00,620.00 438.00,620.96 438.00,620.96
             438.00,620.96 423.00,620.96 423.00,620.96
             423.00,620.96 398.00,622.91 398.00,622.91
             356.84,625.74 321.31,631.90 281.00,640.00
             277.62,630.77 271.37,593.41 269.73,582.00
             266.58,560.11 263.92,538.07 262.96,516.00
             262.96,516.00 262.00,503.00 262.00,503.00
             262.00,503.00 261.00,475.00 261.00,475.00
             261.00,475.00 450.00,475.00 450.00,475.00 Z
           M 671.00,475.00
           C 671.00,475.00 670.00,506.00 670.00,506.00
             670.00,506.00 669.04,517.00 669.04,517.00
             668.09,538.76 665.38,560.43 662.27,582.00
             660.42,594.84 654.99,629.16 651.00,640.00
             651.00,640.00 619.00,633.42 619.00,633.42
             591.23,628.42 563.11,624.88 535.00,622.91
             535.00,622.91 509.00,620.96 509.00,620.96
             509.00,620.96 495.00,620.96 495.00,620.96
             495.00,620.96 482.00,620.00 482.00,620.00
             482.00,620.00 482.00,475.00 482.00,475.00
             482.00,475.00 671.00,475.00 671.00,475.00 Z
           M 884.00,475.00
           C 884.00,532.80 864.96,597.57 839.25,649.00
             832.91,661.67 825.80,674.16 818.00,686.00
             816.23,688.68 811.81,696.46 808.82,697.19
             805.87,697.92 800.58,694.29 798.00,692.86
             798.00,692.86 774.00,680.78 774.00,680.78
             744.72,666.95 714.01,657.06 683.00,648.00
             683.00,648.00 687.20,627.00 687.20,627.00
             687.20,627.00 693.58,591.00 693.58,591.00
             697.24,567.40 699.46,543.77 701.09,520.00
             701.09,520.00 702.00,510.00 702.00,510.00
             702.00,510.00 703.00,490.00 703.00,490.00
             703.00,490.00 703.00,475.00 703.00,475.00
             703.00,475.00 884.00,475.00 884.00,475.00 Z
           M 450.00,653.00
           C 450.00,653.00 450.00,877.00 450.00,877.00
             450.00,877.00 439.00,877.00 439.00,877.00
             439.00,877.00 423.00,875.39 423.00,875.39
             410.03,871.95 389.49,854.49 380.00,845.00
             345.94,810.94 324.91,771.28 307.20,727.00
             302.47,715.17 290.62,682.48 289.00,671.00
             289.00,671.00 317.00,665.42 317.00,665.42
             349.71,659.52 382.84,655.41 416.00,653.96
             416.00,653.96 429.00,653.00 429.00,653.00
             429.00,653.00 450.00,653.00 450.00,653.00 Z
           M 643.00,671.00
           C 641.40,682.32 629.65,715.35 625.00,727.00
             608.07,769.45 582.31,818.48 548.00,849.16
             539.90,856.41 520.11,872.46 510.00,875.36
             510.00,875.36 491.00,877.00 491.00,877.00
             491.00,877.00 482.00,877.00 482.00,877.00
             482.00,877.00 482.00,653.00 482.00,653.00
             520.75,653.00 559.73,656.01 598.00,662.43
             598.00,662.43 643.00,671.00 643.00,671.00 Z
           M 257.00,679.00
           C 257.00,679.00 267.08,711.00 267.08,711.00
             276.47,738.38 287.52,765.52 301.31,791.00
             310.16,807.37 320.18,823.14 331.37,838.00
             331.37,838.00 350.00,861.00 350.00,861.00
             337.24,859.04 308.54,847.40 296.00,841.86
             255.19,823.82 217.08,798.76 184.00,768.83
             184.00,768.83 157.17,742.00 157.17,742.00
             157.17,742.00 143.00,726.00 143.00,726.00
             147.87,720.47 162.83,714.33 170.00,710.75
             184.95,703.30 208.99,693.93 225.00,688.74
             225.00,688.74 257.00,679.00 257.00,679.00 Z
           M 789.00,724.00
           C 786.12,730.38 776.16,740.81 771.00,746.00
             771.00,746.00 744.00,772.28 744.00,772.28
             708.84,802.87 669.38,828.79 626.00,846.20
             614.93,850.64 593.15,859.43 582.00,861.00
             582.00,861.00 599.35,840.00 599.35,840.00
             609.47,826.74 621.74,807.71 629.69,793.00
             643.96,766.62 654.29,741.16 664.31,713.00
             664.31,713.00 675.00,679.00 675.00,679.00
             697.33,685.52 719.52,692.41 741.00,701.42
             741.00,701.42 772.00,715.27 772.00,715.27
             772.00,715.27 789.00,724.00 789.00,724.00 Z
           M 351.00,861.00
           C 351.00,861.00 351.00,862.00 351.00,862.00
             351.00,862.00 350.00,861.00 350.00,861.00
             350.00,861.00 351.00,861.00 351.00,861.00 Z
           M 582.00,861.00
           C 582.00,861.00 582.00,862.00 582.00,862.00
             582.00,862.00 581.00,861.00 581.00,861.00
             581.00,861.00 582.00,861.00 582.00,861.00 Z
           M 385.00,963.00
           C 385.00,963.00 385.00,1124.00 385.00,1124.00
             385.00,1124.00 304.00,1124.00 304.00,1124.00
             304.00,1124.00 321.75,1146.00 321.75,1146.00
             321.75,1146.00 355.58,1186.00 355.58,1186.00
             355.58,1186.00 465.00,1316.00 465.00,1316.00
             465.00,1316.00 489.08,1289.00 489.08,1289.00
             489.08,1289.00 531.42,1239.00 531.42,1239.00
             531.42,1239.00 597.59,1161.00 597.59,1161.00
             597.59,1161.00 628.00,1124.00 628.00,1124.00
             628.00,1124.00 557.00,1124.00 557.00,1124.00
             557.00,1124.00 548.60,1122.40 548.60,1122.40
             548.60,1122.40 547.00,1114.00 547.00,1114.00
             547.00,1114.00 547.00,1086.00 547.00,1086.00
             547.00,1086.00 547.00,963.00 547.00,963.00
             547.00,963.00 385.00,963.00 385.00,963.00 Z
           M 0.00,1365.00
           C 0.00,1365.00 0.00,2298.00 0.00,2298.00
             0.00,2298.00 932.00,2298.00 932.00,2298.00
             932.00,2298.00 932.00,1365.00 932.00,1365.00
             932.00,1365.00 0.00,1365.00 0.00,1365.00 Z
           M 230.00,1412.00
           C 230.00,1412.00 230.00,1586.00 230.00,1586.00
             230.00,1586.00 228.40,1593.98 228.40,1593.98
             228.40,1593.98 217.00,1595.00 217.00,1595.00
             217.00,1595.00 187.00,1595.00 187.00,1595.00
             187.00,1595.00 47.00,1595.00 47.00,1595.00
             47.00,1595.00 47.00,1412.00 47.00,1412.00
             47.00,1412.00 230.00,1412.00 230.00,1412.00 Z
           M 450.00,1412.00
           C 450.00,1412.00 450.00,1595.00 450.00,1595.00
             450.00,1595.00 260.00,1595.00 260.00,1595.00
             260.00,1595.00 260.00,1412.00 260.00,1412.00
             260.00,1412.00 450.00,1412.00 450.00,1412.00 Z
           M 672.00,1412.00
           C 672.00,1412.00 672.00,1595.00 672.00,1595.00
             672.00,1595.00 490.00,1595.00 490.00,1595.00
             490.00,1595.00 482.02,1593.40 482.02,1593.40
             482.02,1593.40 481.00,1582.00 481.00,1582.00
             481.00,1582.00 481.00,1552.00 481.00,1552.00
             481.00,1552.00 481.00,1412.00 481.00,1412.00
             481.00,1412.00 672.00,1412.00 672.00,1412.00 Z
           M 886.00,1412.00
           C 886.00,1412.00 886.00,1586.00 886.00,1586.00
             886.00,1586.00 884.40,1593.98 884.40,1593.98
             884.40,1593.98 873.00,1595.00 873.00,1595.00
             873.00,1595.00 845.00,1595.00 845.00,1595.00
             845.00,1595.00 711.00,1595.00 711.00,1595.00
             711.00,1595.00 703.02,1593.40 703.02,1593.40
             703.02,1593.40 702.00,1582.00 702.00,1582.00
             702.00,1582.00 702.00,1552.00 702.00,1552.00
             702.00,1552.00 702.00,1412.00 702.00,1412.00
             702.00,1412.00 886.00,1412.00 886.00,1412.00 Z
           M 230.00,1815.00
           C 230.00,1815.00 47.00,1815.00 47.00,1815.00
             47.00,1815.00 47.00,1625.00 47.00,1625.00
             47.00,1625.00 221.00,1625.00 221.00,1625.00
             221.00,1625.00 228.98,1626.60 228.98,1626.60
             228.98,1626.60 230.00,1638.00 230.00,1638.00
             230.00,1638.00 230.00,1669.00 230.00,1669.00
             230.00,1669.00 230.00,1815.00 230.00,1815.00 Z
           M 451.00,1625.00
           C 451.00,1625.00 450.00,1648.00 450.00,1648.00
             450.00,1648.00 450.00,1688.00 450.00,1688.00
             450.00,1688.00 450.00,1815.00 450.00,1815.00
             450.00,1815.00 260.00,1815.00 260.00,1815.00
             260.00,1815.00 260.00,1634.00 260.00,1634.00
             260.00,1634.00 261.60,1626.02 261.60,1626.02
             261.60,1626.02 273.00,1625.00 273.00,1625.00
             273.00,1625.00 304.00,1625.00 304.00,1625.00
             304.00,1625.00 451.00,1625.00 451.00,1625.00 Z
           M 672.00,1816.00
           C 672.00,1816.00 646.00,1815.00 646.00,1815.00
             646.00,1815.00 600.00,1815.00 600.00,1815.00
             600.00,1815.00 521.00,1815.00 521.00,1815.00
             521.00,1815.00 481.00,1816.00 481.00,1816.00
             481.00,1816.00 481.00,1625.00 481.00,1625.00
             481.00,1625.00 663.00,1625.00 663.00,1625.00
             663.00,1625.00 670.98,1626.60 670.98,1626.60
             670.98,1626.60 672.00,1638.00 672.00,1638.00
             672.00,1638.00 672.00,1669.00 672.00,1669.00
             672.00,1669.00 672.00,1816.00 672.00,1816.00 Z
           M 886.00,1815.00
           C 886.00,1815.00 763.00,1815.00 763.00,1815.00
             763.00,1815.00 725.00,1815.00 725.00,1815.00
             725.00,1815.00 702.00,1816.00 702.00,1816.00
             702.00,1816.00 702.00,1625.00 702.00,1625.00
             702.00,1625.00 877.00,1625.00 877.00,1625.00
             877.00,1625.00 884.98,1626.60 884.98,1626.60
             884.98,1626.60 886.00,1638.00 886.00,1638.00
             886.00,1638.00 886.00,1669.00 886.00,1669.00
             886.00,1669.00 886.00,1815.00 886.00,1815.00 Z
           M 451.00,1815.00
           C 451.00,1815.00 451.00,1816.00 451.00,1816.00
             451.00,1816.00 450.00,1815.00 450.00,1815.00
             450.00,1815.00 451.00,1815.00 451.00,1815.00 Z
           M 261.00,1846.00
           C 261.00,1846.00 283.00,1847.00 283.00,1847.00
             283.00,1847.00 322.00,1847.00 322.00,1847.00
             322.00,1847.00 450.00,1847.00 450.00,1847.00
             450.00,1847.00 450.00,1974.00 450.00,1974.00
             450.00,1974.00 450.00,2014.00 450.00,2014.00
             450.00,2014.00 451.00,2037.00 451.00,2037.00
             451.00,2037.00 260.00,2037.00 260.00,2037.00
             260.00,2037.00 260.00,1903.00 260.00,1903.00
             260.00,1903.00 260.00,1865.00 260.00,1865.00
             260.00,1865.00 261.00,1846.00 261.00,1846.00 Z
           M 451.00,1846.00
           C 451.00,1846.00 451.00,1847.00 451.00,1847.00
             451.00,1847.00 450.00,1846.00 450.00,1846.00
             450.00,1846.00 451.00,1846.00 451.00,1846.00 Z
           M 482.00,1846.00
           C 482.00,1846.00 504.00,1847.00 504.00,1847.00
             504.00,1847.00 544.00,1847.00 544.00,1847.00
             544.00,1847.00 629.00,1847.00 629.00,1847.00
             629.00,1847.00 672.00,1846.00 672.00,1846.00
             672.00,1846.00 672.00,2028.00 672.00,2028.00
             672.00,2028.00 670.40,2035.98 670.40,2035.98
             670.40,2035.98 659.00,2037.00 659.00,2037.00
             659.00,2037.00 630.00,2037.00 630.00,2037.00
             630.00,2037.00 490.00,2037.00 490.00,2037.00
             490.00,2037.00 482.02,2035.40 482.02,2035.40
             482.02,2035.40 481.00,2024.00 481.00,2024.00
             481.00,2024.00 481.00,1994.00 481.00,1994.00
             481.00,1994.00 481.00,1891.00 481.00,1891.00
             481.00,1891.00 481.00,1861.00 481.00,1861.00
             481.00,1861.00 482.00,1846.00 482.00,1846.00 Z
           M 230.00,1847.00
           C 230.00,1847.00 230.00,2037.00 230.00,2037.00
             230.00,2037.00 47.00,2037.00 47.00,2037.00
             47.00,2037.00 47.00,1847.00 47.00,1847.00
             47.00,1847.00 230.00,1847.00 230.00,1847.00 Z
           M 886.00,1847.00
           C 886.00,1847.00 886.00,2037.00 886.00,2037.00
             886.00,2037.00 702.00,2037.00 702.00,2037.00
             702.00,2037.00 702.00,1847.00 702.00,1847.00
             702.00,1847.00 886.00,1847.00 886.00,1847.00 Z
           M 230.00,2068.00
           C 230.00,2068.00 230.00,2242.00 230.00,2242.00
             230.00,2242.00 228.40,2249.98 228.40,2249.98
             228.40,2249.98 217.00,2251.00 217.00,2251.00
             217.00,2251.00 187.00,2251.00 187.00,2251.00
             187.00,2251.00 47.00,2251.00 47.00,2251.00
             47.00,2251.00 47.00,2068.00 47.00,2068.00
             47.00,2068.00 230.00,2068.00 230.00,2068.00 Z
           M 450.00,2068.00
           C 450.00,2068.00 450.00,2191.00 450.00,2191.00
             450.00,2191.00 450.00,2229.00 450.00,2229.00
             450.00,2229.00 451.00,2251.00 451.00,2251.00
             451.00,2251.00 260.00,2251.00 260.00,2251.00
             260.00,2251.00 260.00,2068.00 260.00,2068.00
             260.00,2068.00 450.00,2068.00 450.00,2068.00 Z
           M 672.00,2068.00
           C 672.00,2068.00 672.00,2251.00 672.00,2251.00
             672.00,2251.00 481.00,2251.00 481.00,2251.00
             481.00,2251.00 481.00,2068.00 481.00,2068.00
             481.00,2068.00 672.00,2068.00 672.00,2068.00 Z
           M 886.00,2068.00
           C 886.00,2068.00 886.00,2242.00 886.00,2242.00
             886.00,2242.00 884.40,2249.98 884.40,2249.98
             884.40,2249.98 873.00,2251.00 873.00,2251.00
             873.00,2251.00 845.00,2251.00 845.00,2251.00
             845.00,2251.00 711.00,2251.00 711.00,2251.00
             711.00,2251.00 703.02,2249.40 703.02,2249.40
             703.02,2249.40 702.00,2238.00 702.00,2238.00
             702.00,2238.00 702.00,2208.00 702.00,2208.00
             702.00,2208.00 702.00,2068.00 702.00,2068.00
             702.00,2068.00 886.00,2068.00 886.00,2068.00 Z" />
</svg>
