<?xml version="1.0" encoding="UTF-8" standalone="no"?>
<!DOCTYPE svg PUBLIC "-//W3C//DTD SVG 20010904//EN"
              "http://www.w3.org/TR/2001/REC-SVG-20010904/DTD/svg10.dtd">

<svg xmlns="http://www.w3.org/2000/svg"
     width="10.3556in" height="25.5333in"
     viewBox="0 0 932 2298">
  <path id="Auswahl"
        fill="#eeeeee" stroke="none" stroke-width="1"
        d="M 0.00,0.00
           C 0.00,0.00 932.00,0.00 932.00,0.00
             932.00,0.00 932.00,933.00 932.00,933.00
             932.00,933.00 0.00,933.00 0.00,933.00
             0.00,933.00 0.00,0.00 0.00,0.00 Z
           M 230.00,47.00
           C 230.00,47.00 48.00,47.00 48.00,47.00
             48.00,47.00 48.00,230.00 48.00,230.00
             48.00,230.00 209.00,230.00 209.00,230.00
             209.00,230.00 224.00,229.00 224.00,229.00
             224.00,229.00 228.00,229.00 228.00,229.00
             228.00,229.00 230.00,214.00 230.00,214.00
             230.00,214.00 230.00,162.00 230.00,162.00
             230.00,162.00 230.00,47.00 230.00,47.00 Z
           M 450.00,47.00
           C 450.00,47.00 261.00,47.00 261.00,47.00
             261.00,47.00 261.00,230.00 261.00,230.00
             261.00,230.00 450.00,230.00 450.00,230.00
             450.00,230.00 450.00,47.00 450.00,47.00 Z
           M 672.00,47.00
           C 672.00,47.00 482.00,47.00 482.00,47.00
             482.00,47.00 482.00,228.00 482.00,228.00
             482.00,228.00 498.00,230.00 498.00,230.00
             498.00,230.00 551.00,230.00 551.00,230.00
             551.00,230.00 672.00,230.00 672.00,230.00
             672.00,230.00 672.00,47.00 672.00,47.00 Z
           M 886.00,47.00
           C 886.00,47.00 702.00,47.00 702.00,47.00
             702.00,47.00 702.00,209.00 702.00,209.00
             702.00,209.00 703.00,224.00 703.00,224.00
             703.00,224.00 703.00,228.00 703.00,228.00
             703.00,228.00 718.00,230.00 718.00,230.00
             718.00,230.00 766.00,230.00 766.00,230.00
             766.00,230.00 867.00,230.00 867.00,230.00
             867.00,230.00 884.00,229.00 884.00,229.00
             884.00,229.00 886.00,214.00 886.00,214.00
             886.00,214.00 886.00,162.00 886.00,162.00
             886.00,162.00 886.00,47.00 886.00,47.00 Z
           M 229.00,262.00
           C 229.00,262.00 214.00,260.00 214.00,260.00
             214.00,260.00 162.00,260.00 162.00,260.00
             162.00,260.00 48.00,260.00 48.00,260.00
             48.00,260.00 48.00,450.00 48.00,450.00
             48.00,450.00 230.00,450.00 230.00,450.00
             230.00,450.00 230.00,281.00 230.00,281.00
             230.00,281.00 229.00,266.00 229.00,266.00
             229.00,266.00 229.00,262.00 229.00,262.00 Z
           M 450.00,260.00
           C 450.00,260.00 281.00,260.00 281.00,260.00
             281.00,260.00 266.00,261.00 266.00,261.00
             266.00,261.00 262.00,261.00 262.00,261.00
             260.00,272.15 261.00,312.01 261.00,326.00
             261.00,326.00 261.00,450.00 261.00,450.00
             261.00,450.00 450.00,450.00 450.00,450.00
             450.00,450.00 450.00,260.00 450.00,260.00 Z
           M 671.00,262.00
           C 671.00,262.00 655.00,260.00 655.00,260.00
             655.00,260.00 602.00,260.00 602.00,260.00
             602.00,260.00 482.00,260.00 482.00,260.00
             482.00,260.00 482.00,450.00 482.00,450.00
             482.00,450.00 672.00,450.00 672.00,450.00
             672.00,450.00 672.00,281.00 672.00,281.00
             672.00,281.00 671.00,266.00 671.00,266.00
             671.00,266.00 671.00,262.00 671.00,262.00 Z
           M 885.00,262.00
           C 885.00,262.00 870.00,260.00 870.00,260.00
             870.00,260.00 818.00,260.00 818.00,260.00
             818.00,260.00 702.00,260.00 702.00,260.00
             702.00,260.00 702.00,450.00 702.00,450.00
             702.00,450.00 886.00,450.00 886.00,450.00
             886.00,450.00 886.00,281.00 886.00,281.00
             886.00,281.00 885.00,266.00 885.00,266.00
             885.00,266.00 885.00,262.00 885.00,262.00 Z
           M 672.00,481.00
           C 672.00,481.00 649.00,482.00 649.00,482.00
             649.00,482.00 609.00,482.00 609.00,482.00
             609.00,482.00 482.00,482.00 482.00,482.00
             482.00,482.00 482.00,670.00 482.00,670.00
             482.00,670.00 497.00,672.00 497.00,672.00
             497.00,672.00 547.00,672.00 547.00,672.00
             547.00,672.00 653.00,672.00 653.00,672.00
             653.00,672.00 670.00,671.00 670.00,671.00
             670.00,671.00 672.00,655.00 672.00,655.00
             672.00,655.00 672.00,602.00 672.00,602.00
             672.00,602.00 672.00,481.00 672.00,481.00 Z
           M 230.00,482.00
           C 230.00,482.00 48.00,482.00 48.00,482.00
             48.00,482.00 48.00,672.00 48.00,672.00
             48.00,672.00 230.00,672.00 230.00,672.00
             230.00,672.00 230.00,482.00 230.00,482.00 Z
           M 450.00,482.00
           C 450.00,482.00 261.00,482.00 261.00,482.00
             261.00,482.00 261.00,672.00 261.00,672.00
             261.00,672.00 450.00,672.00 450.00,672.00
             450.00,672.00 450.00,482.00 450.00,482.00 Z
           M 886.00,482.00
           C 886.00,482.00 702.00,482.00 702.00,482.00
             702.00,482.00 702.00,672.00 702.00,672.00
             702.00,672.00 886.00,672.00 886.00,672.00
             886.00,672.00 886.00,482.00 886.00,482.00 Z
           M 230.00,703.00
           C 230.00,703.00 48.00,703.00 48.00,703.00
             48.00,703.00 48.00,886.00 48.00,886.00
             48.00,886.00 209.00,886.00 209.00,886.00
             209.00,886.00 224.00,885.00 224.00,885.00
             224.00,885.00 228.00,885.00 228.00,885.00
             228.00,885.00 230.00,870.00 230.00,870.00
             230.00,870.00 230.00,818.00 230.00,818.00
             230.00,818.00 230.00,703.00 230.00,703.00 Z
           M 450.00,703.00
           C 450.00,703.00 261.00,703.00 261.00,703.00
             261.00,703.00 261.00,886.00 261.00,886.00
             261.00,886.00 450.00,886.00 450.00,886.00
             450.00,886.00 450.00,703.00 450.00,703.00 Z
           M 672.00,703.00
           C 672.00,703.00 482.00,703.00 482.00,703.00
             482.00,703.00 482.00,886.00 482.00,886.00
             482.00,886.00 672.00,886.00 672.00,886.00
             672.00,886.00 672.00,703.00 672.00,703.00 Z
           M 886.00,703.00
           C 886.00,703.00 702.00,703.00 702.00,703.00
             702.00,703.00 702.00,865.00 702.00,865.00
             702.00,865.00 703.00,880.00 703.00,880.00
             703.00,880.00 703.00,884.00 703.00,884.00
             703.00,884.00 718.00,886.00 718.00,886.00
             718.00,886.00 766.00,886.00 766.00,886.00
             766.00,886.00 867.00,886.00 867.00,886.00
             867.00,886.00 884.00,885.00 884.00,885.00
             884.00,885.00 886.00,870.00 886.00,870.00
             886.00,870.00 886.00,818.00 886.00,818.00
             886.00,818.00 886.00,703.00 886.00,703.00 Z
           M 385.00,963.00
           C 385.00,963.00 547.10,963.00 547.10,963.00
             547.10,963.00 547.10,1085.00 547.10,1085.00
             547.10,1085.00 547.10,1112.00 547.10,1112.00
             547.65,1114.75 548.33,1119.28 550.51,1121.15
             553.57,1123.77 562.03,1123.99 566.00,1124.00
             566.00,1124.00 628.00,1124.00 628.00,1124.00
             625.20,1130.21 618.84,1136.62 614.42,1142.00
             614.42,1142.00 586.13,1176.00 586.13,1176.00
             586.13,1176.00 506.42,1270.00 506.42,1270.00
             506.42,1270.00 477.00,1304.00 477.00,1304.00
             474.58,1306.65 468.51,1314.80 465.01,1314.80
             461.81,1314.80 455.70,1306.52 453.59,1304.00
             453.59,1304.00 425.87,1271.00 425.87,1271.00
             425.87,1271.00 345.87,1176.00 345.87,1176.00
             345.87,1176.00 318.92,1144.00 318.92,1144.00
             314.52,1138.72 306.68,1129.94 304.00,1124.00
             304.00,1124.00 385.00,1124.00 385.00,1124.00
             385.00,1124.00 385.00,963.00 385.00,963.00 Z
           M 435.00,1353.21
           C 435.00,1353.21 486.00,1353.21 486.00,1353.21
             486.00,1353.21 498.00,1354.04 498.00,1354.04
             498.00,1354.04 507.00,1354.04 507.00,1354.04
             533.92,1356.73 559.85,1360.77 586.00,1367.85
             712.65,1402.15 818.96,1488.42 877.75,1606.00
             898.66,1647.81 913.60,1694.72 920.27,1741.00
             920.27,1741.00 924.09,1776.00 924.09,1776.00
             924.09,1776.00 925.04,1786.00 925.04,1786.00
             925.04,1786.00 925.04,1799.00 925.04,1799.00
             925.04,1799.00 926.00,1810.00 926.00,1810.00
             926.00,1810.00 926.00,1814.00 926.00,1814.00
             926.00,1814.00 925.00,1827.00 925.00,1827.00
             924.68,1854.44 921.51,1882.15 915.58,1909.00
             915.58,1909.00 910.37,1929.00 910.37,1929.00
             910.37,1929.00 902.65,1958.00 902.65,1958.00
             902.65,1958.00 889.01,1992.00 889.01,1992.00
             889.01,1992.00 877.63,2019.00 877.63,2019.00
             877.63,2019.00 867.42,2037.00 867.42,2037.00
             849.20,2068.78 828.96,2098.11 803.91,2125.00
             753.92,2178.66 691.83,2219.71 623.00,2244.95
             594.51,2255.39 552.17,2265.90 522.00,2268.83
             522.00,2268.83 503.00,2270.09 503.00,2270.09
             503.00,2270.09 477.00,2272.00 477.00,2272.00
             477.00,2272.00 454.00,2272.00 454.00,2272.00
             454.00,2272.00 433.00,2271.00 433.00,2271.00
             433.00,2271.00 423.00,2270.09 423.00,2270.09
             387.67,2267.51 350.56,2258.52 317.00,2247.33
             299.30,2241.43 279.66,2234.06 263.00,2225.73
             247.81,2218.14 217.98,2200.27 204.00,2190.57
             166.07,2164.25 131.82,2132.44 103.42,2096.00
             61.57,2042.29 32.36,1979.32 17.35,1913.00
             13.00,1893.77 7.03,1859.25 7.00,1840.00
             7.00,1840.00 7.00,1782.00 7.00,1782.00
             7.00,1782.00 11.58,1741.00 11.58,1741.00
             16.22,1711.08 23.62,1681.45 34.05,1653.00
             80.67,1525.85 183.51,1424.06 311.00,1378.69
             337.70,1369.19 367.96,1361.58 396.00,1357.43
             396.00,1357.43 435.00,1353.21 435.00,1353.21 Z
           M 450.00,1394.00
           C 445.64,1395.06 444.41,1394.99 440.00,1395.00
             434.07,1395.01 425.57,1395.58 420.00,1397.55
             406.71,1402.23 390.46,1417.28 380.01,1426.72
             347.88,1455.73 320.84,1509.55 305.58,1550.00
             301.20,1561.59 290.95,1588.72 290.00,1600.00
             290.00,1600.00 351.00,1610.72 351.00,1610.72
             351.00,1610.72 397.00,1615.17 397.00,1615.17
             397.00,1615.17 428.00,1618.00 428.00,1618.00
             428.00,1618.00 450.00,1618.00 450.00,1618.00
             450.00,1618.00 450.00,1394.00 450.00,1394.00 Z
           M 642.00,1600.00
           C 641.66,1593.08 639.08,1586.56 637.02,1580.00
             637.02,1580.00 623.40,1542.00 623.40,1542.00
             606.14,1498.86 583.38,1455.84 549.00,1423.91
             532.93,1409.00 518.05,1395.27 495.00,1395.00
             495.00,1395.00 483.00,1395.00 483.00,1395.00
             483.00,1395.00 483.00,1618.00 483.00,1618.00
             483.00,1618.00 503.00,1618.00 503.00,1618.00
             503.00,1618.00 527.00,1616.00 527.00,1616.00
             527.00,1616.00 536.00,1616.00 536.00,1616.00
             536.00,1616.00 589.00,1609.73 589.00,1609.73
             589.00,1609.73 642.00,1600.00 642.00,1600.00 Z
           M 348.00,1411.00
           C 332.70,1414.46 311.47,1423.17 297.00,1429.70
             256.57,1447.93 222.35,1469.48 189.00,1498.85
             189.00,1498.85 163.00,1524.00 163.00,1524.00
             156.74,1530.27 147.86,1539.14 144.00,1547.00
             166.17,1559.62 190.09,1569.31 214.00,1578.05
             223.67,1581.59 247.54,1589.54 257.00,1591.00
             269.78,1547.24 286.21,1504.24 309.60,1465.00
             316.27,1453.82 322.70,1444.31 330.65,1434.00
             335.72,1427.43 344.07,1417.76 348.00,1411.00 Z
           M 585.00,1411.00
           C 585.79,1416.42 594.88,1425.49 598.58,1430.00
             607.30,1440.66 615.31,1453.18 622.40,1465.00
             640.16,1494.60 653.76,1526.29 664.67,1559.00
             664.67,1559.00 675.00,1591.00 675.00,1591.00
             683.72,1589.77 702.07,1583.64 711.00,1580.67
             734.34,1572.89 766.73,1559.11 788.00,1547.00
             784.22,1539.29 777.87,1533.23 772.09,1527.00
             762.47,1516.63 752.62,1507.20 742.00,1497.85
             691.74,1453.59 647.69,1431.90 585.00,1411.00 Z
           M 248.00,1623.00
           C 221.25,1616.96 186.26,1603.30 161.00,1592.14
             161.00,1592.14 122.00,1574.00 122.00,1574.00
             111.23,1590.16 96.67,1614.62 88.26,1632.00
             73.74,1662.00 62.14,1699.31 55.60,1732.00
             52.81,1745.94 49.02,1768.08 49.00,1782.00
             49.00,1782.00 49.00,1796.00 49.00,1796.00
             49.00,1796.00 229.00,1796.00 229.00,1796.00
             229.00,1796.00 229.00,1772.00 229.00,1772.00
             229.00,1772.00 231.00,1748.00 231.00,1748.00
             231.00,1748.00 231.00,1739.00 231.00,1739.00
             231.00,1739.00 236.42,1691.00 236.42,1691.00
             236.42,1691.00 243.42,1649.00 243.42,1649.00
             243.42,1649.00 248.00,1623.00 248.00,1623.00 Z
           M 810.00,1574.00
           C 810.00,1574.00 777.00,1589.69 777.00,1589.69
             757.13,1598.82 736.73,1606.76 716.00,1613.67
             706.34,1616.89 693.83,1621.61 684.00,1623.00
             684.00,1623.00 693.73,1679.00 693.73,1679.00
             697.59,1705.21 700.89,1731.56 702.04,1758.00
             702.04,1758.00 703.00,1771.00 703.00,1771.00
             703.00,1771.00 703.00,1796.00 703.00,1796.00
             703.00,1796.00 883.00,1796.00 883.00,1796.00
             883.00,1796.00 883.00,1782.00 883.00,1782.00
             882.98,1766.40 878.18,1738.58 874.65,1723.00
             867.96,1693.44 856.94,1659.26 843.74,1632.00
             836.85,1617.77 818.86,1587.56 810.00,1574.00 Z
           M 450.00,1651.00
           C 450.00,1651.00 427.00,1651.00 427.00,1651.00
             427.00,1651.00 397.00,1649.00 397.00,1649.00
             397.00,1649.00 334.00,1641.72 334.00,1641.72
             334.00,1641.72 280.00,1633.00 280.00,1633.00
             280.00,1633.00 270.43,1687.00 270.43,1687.00
             270.43,1687.00 264.00,1742.00 264.00,1742.00
             264.00,1742.00 264.00,1751.00 264.00,1751.00
             264.00,1751.00 262.00,1775.00 262.00,1775.00
             262.00,1775.00 262.00,1796.00 262.00,1796.00
             262.00,1796.00 450.00,1796.00 450.00,1796.00
             450.00,1796.00 450.00,1651.00 450.00,1651.00 Z
           M 652.00,1633.00
           C 652.00,1633.00 593.00,1642.72 593.00,1642.72
             593.00,1642.72 539.00,1649.00 539.00,1649.00
             539.00,1649.00 530.00,1649.00 530.00,1649.00
             530.00,1649.00 505.00,1651.00 505.00,1651.00
             505.00,1651.00 483.00,1651.00 483.00,1651.00
             483.00,1651.00 483.00,1796.00 483.00,1796.00
             483.00,1796.00 670.00,1796.00 670.00,1796.00
             670.00,1796.00 670.00,1773.00 670.00,1773.00
             670.00,1773.00 668.00,1750.00 668.00,1750.00
             668.00,1750.00 668.00,1739.00 668.00,1739.00
             668.00,1739.00 661.73,1688.00 661.73,1688.00
             661.73,1688.00 652.00,1633.00 652.00,1633.00 Z
           M 229.00,1828.00
           C 229.00,1828.00 49.00,1828.00 49.00,1828.00
             49.00,1828.00 49.00,1843.00 49.00,1843.00
             49.04,1871.76 60.47,1917.42 69.67,1945.00
             75.45,1962.36 85.55,1988.31 94.42,2004.00
             94.42,2004.00 113.81,2038.00 113.81,2038.00
             115.53,2040.81 120.26,2048.67 123.17,2049.76
             126.55,2051.01 136.57,2044.03 140.00,2042.26
             140.00,2042.26 186.00,2021.42 186.00,2021.42
             186.00,2021.42 230.00,2006.28 230.00,2006.28
             233.46,2005.24 245.30,2002.21 246.96,1999.58
             248.67,1996.89 246.44,1989.18 245.80,1986.00
             245.80,1986.00 239.41,1952.00 239.41,1952.00
             235.39,1928.04 232.58,1904.21 230.91,1880.00
             230.91,1880.00 230.00,1870.00 230.00,1870.00
             230.00,1870.00 229.00,1851.00 229.00,1851.00
             229.00,1851.00 229.00,1828.00 229.00,1828.00 Z
           M 450.00,1828.00
           C 450.00,1828.00 262.00,1828.00 262.00,1828.00
             262.00,1870.04 265.95,1913.57 273.42,1955.00
             273.42,1955.00 281.00,1992.00 281.00,1992.00
             281.00,1992.00 302.00,1988.42 302.00,1988.42
             302.00,1988.42 343.00,1981.42 343.00,1981.42
             343.00,1981.42 407.00,1974.91 407.00,1974.91
             407.00,1974.91 431.00,1973.00 431.00,1973.00
             431.00,1973.00 450.00,1973.00 450.00,1973.00
             450.00,1973.00 450.00,1828.00 450.00,1828.00 Z
           M 670.00,1828.00
           C 670.00,1828.00 483.00,1828.00 483.00,1828.00
             483.00,1828.00 483.00,1973.00 483.00,1973.00
             519.86,1973.00 560.46,1976.89 597.00,1982.27
             597.00,1982.27 651.00,1992.00 651.00,1992.00
             658.94,1956.85 665.45,1918.98 668.00,1883.00
             668.00,1883.00 668.00,1875.00 668.00,1875.00
             668.00,1875.00 670.00,1851.00 670.00,1851.00
             670.00,1851.00 670.00,1828.00 670.00,1828.00 Z
           M 883.00,1828.00
           C 883.00,1828.00 703.00,1828.00 703.00,1828.00
             703.00,1828.00 703.00,1854.00 703.00,1854.00
             703.00,1854.00 701.09,1877.00 701.09,1877.00
             701.09,1877.00 693.73,1946.00 693.73,1946.00
             693.73,1946.00 684.00,2001.00 684.00,2001.00
             706.86,2006.21 750.35,2022.37 772.00,2032.31
             772.00,2032.31 796.00,2044.31 796.00,2044.31
             799.01,2045.93 804.56,2049.75 808.00,2049.08
             812.40,2048.22 816.56,2040.63 818.81,2037.00
             818.81,2037.00 839.25,2001.00 839.25,2001.00
             856.17,1967.15 870.69,1925.27 877.42,1888.00
             879.72,1875.29 882.98,1855.63 883.00,1843.00
             883.00,1843.00 883.00,1828.00 883.00,1828.00 Z
           M 450.00,2006.00
           C 450.00,2006.00 436.00,2006.00 436.00,2006.00
             436.00,2006.00 404.00,2008.00 404.00,2008.00
             404.00,2008.00 345.00,2014.27 345.00,2014.27
             345.00,2014.27 313.00,2019.61 313.00,2019.61
             313.00,2019.61 290.00,2024.00 290.00,2024.00
             290.58,2035.89 303.66,2069.65 308.60,2082.00
             324.64,2122.10 344.82,2160.59 374.96,2192.00
             385.27,2202.74 405.97,2222.17 420.00,2226.90
             426.15,2228.97 443.10,2230.00 450.00,2230.00
             450.00,2230.00 450.00,2006.00 450.00,2006.00 Z
           M 642.00,2024.00
           C 642.00,2024.00 601.00,2016.42 601.00,2016.42
             601.00,2016.42 546.00,2009.17 546.00,2009.17
             546.00,2009.17 524.00,2007.91 524.00,2007.91
             524.00,2007.91 512.00,2007.00 512.00,2007.00
             512.00,2007.00 483.00,2006.00 483.00,2006.00
             483.00,2006.00 483.00,2230.00 483.00,2230.00
             487.56,2229.99 508.44,2228.28 512.00,2227.04
             523.54,2223.00 546.11,2203.89 555.00,2195.00
             585.66,2164.34 605.84,2124.55 622.42,2085.00
             622.42,2085.00 636.00,2048.00 636.00,2048.00
             638.18,2041.40 641.67,2030.71 642.00,2024.00 Z
           M 257.00,2033.00
           C 257.00,2033.00 225.00,2042.33 225.00,2042.33
             206.69,2048.44 188.30,2055.13 171.00,2063.75
             161.85,2068.31 150.35,2071.62 144.00,2080.00
             144.00,2080.00 189.00,2125.83 189.00,2125.83
             220.28,2154.09 257.66,2177.02 296.00,2194.30
             310.12,2200.67 333.10,2210.00 348.00,2213.00
             344.64,2207.24 336.35,2197.76 331.80,2192.00
             331.80,2192.00 314.42,2167.00 314.42,2167.00
             295.64,2136.99 283.06,2109.12 270.95,2076.00
             270.95,2076.00 257.00,2033.00 257.00,2033.00 Z
           M 788.00,2077.00
           C 768.80,2066.07 732.28,2050.76 711.00,2043.67
             711.00,2043.67 675.00,2033.00 675.00,2033.00
             675.00,2033.00 658.42,2083.00 658.42,2083.00
             647.79,2111.18 635.09,2139.52 618.95,2165.00
             618.95,2165.00 600.50,2192.00 600.50,2192.00
             600.50,2192.00 584.00,2213.00 584.00,2213.00
             597.07,2210.99 630.35,2197.37 643.00,2191.26
             643.00,2191.26 655.00,2185.74 655.00,2185.74
             686.26,2169.72 726.29,2142.70 751.00,2118.00
             761.05,2107.96 782.57,2088.92 788.00,2077.00 Z" />
</svg>
