<?xml version="1.0" encoding="UTF-8" standalone="no"?>
<!DOCTYPE svg PUBLIC "-//W3C//DTD SVG 20010904//EN"
              "http://www.w3.org/TR/2001/REC-SVG-20010904/DTD/svg10.dtd">

<svg xmlns="http://www.w3.org/2000/svg"
     width="11.3778in" height="9.44444in"
     viewBox="0 0 1024 850">
  <path id="Auswahl"
        fill="#eeeeee" stroke="none" stroke-width="1"
        d="M 51.00,774.00
           C 51.00,774.00 51.00,826.00 51.00,826.00
             51.00,826.00 304.00,826.00 304.00,826.00
             346.85,825.93 380.79,782.24 401.19,749.00
             449.20,670.78 489.40,559.82 522.42,473.00
             558.95,376.97 592.45,278.57 637.26,186.00
             637.26,186.00 648.24,165.00 648.24,165.00
             660.21,141.46 674.36,117.83 691.85,98.00
             702.66,85.73 711.97,77.03 729.00,77.00
             729.00,77.00 973.00,77.00 973.00,77.00
             973.00,77.00 973.00,25.00 973.00,25.00
             973.00,25.00 722.00,25.00 722.00,25.00
             677.21,25.07 647.29,65.20 625.00,99.00
             606.95,126.38 586.57,168.61 573.14,199.00
             573.14,199.00 532.81,296.00 532.81,296.00
             532.81,296.00 503.19,374.00 503.19,374.00
             475.71,444.92 450.87,516.84 421.42,587.00
             407.14,621.05 392.78,655.69 374.86,688.00
             360.99,713.02 352.32,729.59 333.41,752.00
             326.84,759.79 315.22,771.13 305.00,773.47
             302.38,774.08 299.67,774.00 297.00,774.00
             297.00,774.00 51.00,774.00 51.00,774.00 Z" />
</svg>
